<mxfile host="app.diagrams.net" agent="Mozilla/5.0 (Windows NT 10.0; Win64; x64) AppleWebKit/537.36 (KHTML, like Gecko) Chrome/131.0.0.0 Safari/537.36" version="24.9.3">
  <diagram name="Сторінка-1" id="kmvbzxaCPrRY4nU9m0ex">
    <mxGraphModel dx="2552" dy="1452" grid="0" gridSize="10" guides="1" tooltips="1" connect="1" arrows="1" fold="1" page="0" pageScale="1" pageWidth="827" pageHeight="1169" math="0" shadow="0">
      <root>
        <mxCell id="0" />
        <mxCell id="1" parent="0" />
        <mxCell id="mWkEnZMsEJqkS9hncbOy-4" value="" style="edgeStyle=none;curved=1;rounded=0;orthogonalLoop=1;jettySize=auto;html=1;fontSize=12;startSize=8;endSize=8;" edge="1" parent="1" source="mWkEnZMsEJqkS9hncbOy-1" target="mWkEnZMsEJqkS9hncbOy-3">
          <mxGeometry relative="1" as="geometry" />
        </mxCell>
        <mxCell id="mWkEnZMsEJqkS9hncbOy-1" value="&lt;font style=&quot;font-size: 19px;&quot;&gt;Start&lt;/font&gt;" style="ellipse;whiteSpace=wrap;html=1;" vertex="1" parent="1">
          <mxGeometry x="166" y="66" width="120" height="80" as="geometry" />
        </mxCell>
        <mxCell id="mWkEnZMsEJqkS9hncbOy-6" value="" style="edgeStyle=none;curved=1;rounded=0;orthogonalLoop=1;jettySize=auto;html=1;fontSize=12;startSize=8;endSize=8;" edge="1" parent="1" source="mWkEnZMsEJqkS9hncbOy-3" target="mWkEnZMsEJqkS9hncbOy-5">
          <mxGeometry relative="1" as="geometry" />
        </mxCell>
        <mxCell id="mWkEnZMsEJqkS9hncbOy-3" value="int N, M;" style="whiteSpace=wrap;html=1;" vertex="1" parent="1">
          <mxGeometry x="184" y="168" width="84" height="35" as="geometry" />
        </mxCell>
        <mxCell id="mWkEnZMsEJqkS9hncbOy-8" value="" style="edgeStyle=none;curved=1;rounded=0;orthogonalLoop=1;jettySize=auto;html=1;fontSize=12;startSize=8;endSize=8;" edge="1" parent="1" source="mWkEnZMsEJqkS9hncbOy-5" target="mWkEnZMsEJqkS9hncbOy-7">
          <mxGeometry relative="1" as="geometry" />
        </mxCell>
        <mxCell id="mWkEnZMsEJqkS9hncbOy-5" value="&amp;nbsp;cin &amp;gt;&amp;gt; N &amp;gt;&amp;gt; M;" style="shape=parallelogram;perimeter=parallelogramPerimeter;whiteSpace=wrap;html=1;fixedSize=1;" vertex="1" parent="1">
          <mxGeometry x="166" y="226" width="120" height="60" as="geometry" />
        </mxCell>
        <mxCell id="mWkEnZMsEJqkS9hncbOy-10" value="" style="edgeStyle=none;curved=1;rounded=0;orthogonalLoop=1;jettySize=auto;html=1;fontSize=12;startSize=8;endSize=8;" edge="1" parent="1" source="mWkEnZMsEJqkS9hncbOy-7" target="mWkEnZMsEJqkS9hncbOy-9">
          <mxGeometry relative="1" as="geometry" />
        </mxCell>
        <mxCell id="mWkEnZMsEJqkS9hncbOy-7" value="vector&amp;lt;string&amp;gt; cave(N);&amp;nbsp;" style="whiteSpace=wrap;html=1;" vertex="1" parent="1">
          <mxGeometry x="166" y="313" width="120" height="60" as="geometry" />
        </mxCell>
        <mxCell id="mWkEnZMsEJqkS9hncbOy-12" value="" style="edgeStyle=none;curved=1;rounded=0;orthogonalLoop=1;jettySize=auto;html=1;fontSize=12;startSize=8;endSize=8;" edge="1" parent="1" source="mWkEnZMsEJqkS9hncbOy-9" target="mWkEnZMsEJqkS9hncbOy-11">
          <mxGeometry relative="1" as="geometry" />
        </mxCell>
        <mxCell id="mWkEnZMsEJqkS9hncbOy-9" value="&amp;nbsp; int i = 0; i &amp;lt; N; i++" style="shape=hexagon;perimeter=hexagonPerimeter2;whiteSpace=wrap;html=1;fixedSize=1;" vertex="1" parent="1">
          <mxGeometry x="163" y="400" width="120" height="33" as="geometry" />
        </mxCell>
        <mxCell id="mWkEnZMsEJqkS9hncbOy-11" value="cin &amp;gt;&amp;gt; cave[i]" style="shape=parallelogram;perimeter=parallelogramPerimeter;whiteSpace=wrap;html=1;fixedSize=1;" vertex="1" parent="1">
          <mxGeometry x="163" y="456" width="120" height="26" as="geometry" />
        </mxCell>
        <mxCell id="mWkEnZMsEJqkS9hncbOy-13" value="" style="endArrow=none;html=1;rounded=0;fontSize=12;startSize=8;endSize=8;curved=1;entryX=1;entryY=0.5;entryDx=0;entryDy=0;" edge="1" parent="1" target="mWkEnZMsEJqkS9hncbOy-11">
          <mxGeometry width="50" height="50" relative="1" as="geometry">
            <mxPoint x="305" y="469" as="sourcePoint" />
            <mxPoint x="225" y="415" as="targetPoint" />
          </mxGeometry>
        </mxCell>
        <mxCell id="mWkEnZMsEJqkS9hncbOy-14" value="" style="endArrow=none;html=1;rounded=0;fontSize=12;startSize=8;endSize=8;curved=1;" edge="1" parent="1">
          <mxGeometry width="50" height="50" relative="1" as="geometry">
            <mxPoint x="304" y="417" as="sourcePoint" />
            <mxPoint x="305" y="469" as="targetPoint" />
          </mxGeometry>
        </mxCell>
        <mxCell id="mWkEnZMsEJqkS9hncbOy-15" value="" style="endArrow=none;html=1;rounded=0;fontSize=12;startSize=8;endSize=8;curved=1;exitX=1;exitY=0.5;exitDx=0;exitDy=0;" edge="1" parent="1" source="mWkEnZMsEJqkS9hncbOy-9">
          <mxGeometry width="50" height="50" relative="1" as="geometry">
            <mxPoint x="317" y="426" as="sourcePoint" />
            <mxPoint x="304" y="417" as="targetPoint" />
          </mxGeometry>
        </mxCell>
        <mxCell id="mWkEnZMsEJqkS9hncbOy-19" value="" style="edgeStyle=none;curved=1;rounded=0;orthogonalLoop=1;jettySize=auto;html=1;fontSize=12;startSize=8;endSize=8;" edge="1" parent="1" source="mWkEnZMsEJqkS9hncbOy-16" target="mWkEnZMsEJqkS9hncbOy-18">
          <mxGeometry relative="1" as="geometry" />
        </mxCell>
        <mxCell id="mWkEnZMsEJqkS9hncbOy-16" value="int col = 0; col &amp;lt; M; col++" style="shape=hexagon;perimeter=hexagonPerimeter2;whiteSpace=wrap;html=1;fixedSize=1;" vertex="1" parent="1">
          <mxGeometry x="147.5" y="505" width="151" height="47" as="geometry" />
        </mxCell>
        <mxCell id="mWkEnZMsEJqkS9hncbOy-21" value="" style="edgeStyle=none;curved=1;rounded=0;orthogonalLoop=1;jettySize=auto;html=1;fontSize=12;startSize=8;endSize=8;" edge="1" parent="1" source="mWkEnZMsEJqkS9hncbOy-18" target="mWkEnZMsEJqkS9hncbOy-20">
          <mxGeometry relative="1" as="geometry" />
        </mxCell>
        <mxCell id="mWkEnZMsEJqkS9hncbOy-18" value="int emptyRow = N - 1;&amp;nbsp;" style="whiteSpace=wrap;html=1;" vertex="1" parent="1">
          <mxGeometry x="152.25" y="575" width="141.5" height="29" as="geometry" />
        </mxCell>
        <mxCell id="mWkEnZMsEJqkS9hncbOy-30" value="" style="edgeStyle=none;curved=1;rounded=0;orthogonalLoop=1;jettySize=auto;html=1;fontSize=12;startSize=8;endSize=8;" edge="1" parent="1" source="mWkEnZMsEJqkS9hncbOy-20" target="mWkEnZMsEJqkS9hncbOy-29">
          <mxGeometry relative="1" as="geometry" />
        </mxCell>
        <mxCell id="mWkEnZMsEJqkS9hncbOy-20" value="int row = N - 1; row &amp;gt;= 0; row--" style="shape=hexagon;perimeter=hexagonPerimeter2;whiteSpace=wrap;html=1;fixedSize=1;" vertex="1" parent="1">
          <mxGeometry x="131" y="627" width="184" height="39" as="geometry" />
        </mxCell>
        <mxCell id="mWkEnZMsEJqkS9hncbOy-26" value="" style="endArrow=none;html=1;rounded=0;fontSize=12;startSize=8;endSize=8;curved=1;exitX=1;exitY=0.5;exitDx=0;exitDy=0;" edge="1" parent="1">
          <mxGeometry width="50" height="50" relative="1" as="geometry">
            <mxPoint x="142" y="416.37" as="sourcePoint" />
            <mxPoint x="163" y="416.37" as="targetPoint" />
          </mxGeometry>
        </mxCell>
        <mxCell id="mWkEnZMsEJqkS9hncbOy-27" value="" style="endArrow=none;html=1;rounded=0;fontSize=12;startSize=8;endSize=8;curved=1;" edge="1" parent="1">
          <mxGeometry width="50" height="50" relative="1" as="geometry">
            <mxPoint x="140" y="528" as="sourcePoint" />
            <mxPoint x="142" y="416" as="targetPoint" />
          </mxGeometry>
        </mxCell>
        <mxCell id="mWkEnZMsEJqkS9hncbOy-28" value="" style="endArrow=none;html=1;rounded=0;fontSize=12;startSize=8;endSize=8;curved=1;exitX=0;exitY=0.5;exitDx=0;exitDy=0;" edge="1" parent="1" source="mWkEnZMsEJqkS9hncbOy-16">
          <mxGeometry width="50" height="50" relative="1" as="geometry">
            <mxPoint x="145" y="573" as="sourcePoint" />
            <mxPoint x="140" y="528" as="targetPoint" />
          </mxGeometry>
        </mxCell>
        <mxCell id="mWkEnZMsEJqkS9hncbOy-29" value="cave[row][col] == &#39;X&#39;" style="rhombus;whiteSpace=wrap;html=1;" vertex="1" parent="1">
          <mxGeometry x="156" y="681" width="134" height="80" as="geometry" />
        </mxCell>
        <mxCell id="mWkEnZMsEJqkS9hncbOy-31" value="" style="endArrow=none;html=1;rounded=0;fontSize=12;startSize=8;endSize=8;curved=1;entryX=1;entryY=0.5;entryDx=0;entryDy=0;" edge="1" parent="1" target="mWkEnZMsEJqkS9hncbOy-29">
          <mxGeometry width="50" height="50" relative="1" as="geometry">
            <mxPoint x="327" y="721" as="sourcePoint" />
            <mxPoint x="244" y="681" as="targetPoint" />
          </mxGeometry>
        </mxCell>
        <mxCell id="mWkEnZMsEJqkS9hncbOy-32" value="emptyRow = row - 1;" style="rounded=0;whiteSpace=wrap;html=1;" vertex="1" parent="1">
          <mxGeometry x="268" y="756" width="120" height="40" as="geometry" />
        </mxCell>
        <mxCell id="mWkEnZMsEJqkS9hncbOy-33" value="" style="endArrow=none;html=1;rounded=0;fontSize=12;startSize=8;endSize=8;curved=1;exitX=0.5;exitY=0;exitDx=0;exitDy=0;" edge="1" parent="1" source="mWkEnZMsEJqkS9hncbOy-32">
          <mxGeometry width="50" height="50" relative="1" as="geometry">
            <mxPoint x="260" y="731" as="sourcePoint" />
            <mxPoint x="327" y="721" as="targetPoint" />
          </mxGeometry>
        </mxCell>
        <mxCell id="mWkEnZMsEJqkS9hncbOy-34" value="" style="endArrow=none;html=1;rounded=0;fontSize=12;startSize=8;endSize=8;curved=1;entryX=1;entryY=0.5;entryDx=0;entryDy=0;" edge="1" parent="1">
          <mxGeometry width="50" height="50" relative="1" as="geometry">
            <mxPoint x="156" y="720.68" as="sourcePoint" />
            <mxPoint x="119" y="720.68" as="targetPoint" />
          </mxGeometry>
        </mxCell>
        <mxCell id="mWkEnZMsEJqkS9hncbOy-39" value="" style="edgeStyle=none;curved=1;rounded=0;orthogonalLoop=1;jettySize=auto;html=1;fontSize=12;startSize=8;endSize=8;" edge="1" parent="1" source="mWkEnZMsEJqkS9hncbOy-36" target="mWkEnZMsEJqkS9hncbOy-38">
          <mxGeometry relative="1" as="geometry" />
        </mxCell>
        <mxCell id="mWkEnZMsEJqkS9hncbOy-36" value="cave[row][col] == &#39;S&#39;" style="rounded=0;whiteSpace=wrap;html=1;" vertex="1" parent="1">
          <mxGeometry x="60" y="756" width="120" height="40" as="geometry" />
        </mxCell>
        <mxCell id="mWkEnZMsEJqkS9hncbOy-37" value="" style="endArrow=none;html=1;rounded=0;fontSize=12;startSize=8;endSize=8;curved=1;exitX=0.5;exitY=0;exitDx=0;exitDy=0;" edge="1" parent="1" source="mWkEnZMsEJqkS9hncbOy-36">
          <mxGeometry width="50" height="50" relative="1" as="geometry">
            <mxPoint x="52" y="731" as="sourcePoint" />
            <mxPoint x="119" y="721" as="targetPoint" />
          </mxGeometry>
        </mxCell>
        <mxCell id="mWkEnZMsEJqkS9hncbOy-41" value="" style="edgeStyle=none;curved=1;rounded=0;orthogonalLoop=1;jettySize=auto;html=1;fontSize=12;startSize=8;endSize=8;" edge="1" parent="1" source="mWkEnZMsEJqkS9hncbOy-38" target="mWkEnZMsEJqkS9hncbOy-40">
          <mxGeometry relative="1" as="geometry" />
        </mxCell>
        <mxCell id="mWkEnZMsEJqkS9hncbOy-38" value="cave[row][col] = &#39;O&#39;;" style="rounded=0;whiteSpace=wrap;html=1;" vertex="1" parent="1">
          <mxGeometry x="60" y="818" width="120" height="40" as="geometry" />
        </mxCell>
        <mxCell id="mWkEnZMsEJqkS9hncbOy-43" value="" style="edgeStyle=none;curved=1;rounded=0;orthogonalLoop=1;jettySize=auto;html=1;fontSize=12;startSize=8;endSize=8;" edge="1" parent="1" source="mWkEnZMsEJqkS9hncbOy-40" target="mWkEnZMsEJqkS9hncbOy-42">
          <mxGeometry relative="1" as="geometry" />
        </mxCell>
        <mxCell id="mWkEnZMsEJqkS9hncbOy-40" value="cave[emptyRow][col] = &#39;S&#39;;" style="rounded=0;whiteSpace=wrap;html=1;" vertex="1" parent="1">
          <mxGeometry x="60" y="880" width="120" height="40" as="geometry" />
        </mxCell>
        <mxCell id="mWkEnZMsEJqkS9hncbOy-42" value="emptyRow--;" style="rounded=0;whiteSpace=wrap;html=1;" vertex="1" parent="1">
          <mxGeometry x="60" y="940" width="120" height="40" as="geometry" />
        </mxCell>
        <mxCell id="mWkEnZMsEJqkS9hncbOy-44" value="" style="endArrow=none;html=1;rounded=0;fontSize=12;startSize=8;endSize=8;curved=1;entryX=0.5;entryY=1;entryDx=0;entryDy=0;" edge="1" parent="1" target="mWkEnZMsEJqkS9hncbOy-32">
          <mxGeometry width="50" height="50" relative="1" as="geometry">
            <mxPoint x="333" y="1018" as="sourcePoint" />
            <mxPoint x="259" y="901" as="targetPoint" />
          </mxGeometry>
        </mxCell>
        <mxCell id="mWkEnZMsEJqkS9hncbOy-45" value="" style="endArrow=none;html=1;rounded=0;fontSize=12;startSize=8;endSize=8;curved=1;entryX=0.5;entryY=1;entryDx=0;entryDy=0;" edge="1" parent="1" target="mWkEnZMsEJqkS9hncbOy-42">
          <mxGeometry width="50" height="50" relative="1" as="geometry">
            <mxPoint x="120" y="1019" as="sourcePoint" />
            <mxPoint x="259" y="880" as="targetPoint" />
          </mxGeometry>
        </mxCell>
        <mxCell id="mWkEnZMsEJqkS9hncbOy-46" value="" style="endArrow=none;html=1;rounded=0;fontSize=12;startSize=8;endSize=8;curved=1;" edge="1" parent="1">
          <mxGeometry width="50" height="50" relative="1" as="geometry">
            <mxPoint x="334" y="1018" as="sourcePoint" />
            <mxPoint x="120" y="1019" as="targetPoint" />
          </mxGeometry>
        </mxCell>
        <mxCell id="mWkEnZMsEJqkS9hncbOy-47" value="" style="endArrow=none;html=1;rounded=0;fontSize=12;startSize=8;endSize=8;curved=1;" edge="1" parent="1">
          <mxGeometry width="50" height="50" relative="1" as="geometry">
            <mxPoint x="231" y="1071" as="sourcePoint" />
            <mxPoint x="230" y="1018" as="targetPoint" />
          </mxGeometry>
        </mxCell>
        <mxCell id="mWkEnZMsEJqkS9hncbOy-48" value="" style="endArrow=none;html=1;rounded=0;fontSize=12;startSize=8;endSize=8;curved=1;" edge="1" parent="1">
          <mxGeometry width="50" height="50" relative="1" as="geometry">
            <mxPoint x="231" y="1070" as="sourcePoint" />
            <mxPoint x="426" y="1070" as="targetPoint" />
          </mxGeometry>
        </mxCell>
        <mxCell id="mWkEnZMsEJqkS9hncbOy-49" value="" style="endArrow=none;html=1;rounded=0;fontSize=12;startSize=8;endSize=8;curved=1;" edge="1" parent="1">
          <mxGeometry width="50" height="50" relative="1" as="geometry">
            <mxPoint x="419" y="528" as="sourcePoint" />
            <mxPoint x="426" y="1070" as="targetPoint" />
          </mxGeometry>
        </mxCell>
        <mxCell id="mWkEnZMsEJqkS9hncbOy-50" value="" style="endArrow=none;html=1;rounded=0;fontSize=12;startSize=8;endSize=8;curved=1;entryX=1;entryY=0.5;entryDx=0;entryDy=0;" edge="1" parent="1">
          <mxGeometry width="50" height="50" relative="1" as="geometry">
            <mxPoint x="419" y="529" as="sourcePoint" />
            <mxPoint x="298.5" y="528.22" as="targetPoint" />
          </mxGeometry>
        </mxCell>
        <mxCell id="mWkEnZMsEJqkS9hncbOy-51" value="" style="endArrow=none;html=1;rounded=0;fontSize=12;startSize=8;endSize=8;curved=1;" edge="1" parent="1">
          <mxGeometry width="50" height="50" relative="1" as="geometry">
            <mxPoint x="35" y="528" as="sourcePoint" />
            <mxPoint x="140" y="528" as="targetPoint" />
          </mxGeometry>
        </mxCell>
        <mxCell id="mWkEnZMsEJqkS9hncbOy-52" value="" style="endArrow=none;html=1;rounded=0;fontSize=12;startSize=8;endSize=8;curved=1;" edge="1" parent="1">
          <mxGeometry width="50" height="50" relative="1" as="geometry">
            <mxPoint x="40" y="1104" as="sourcePoint" />
            <mxPoint x="36" y="527" as="targetPoint" />
          </mxGeometry>
        </mxCell>
        <mxCell id="mWkEnZMsEJqkS9hncbOy-56" value="" style="edgeStyle=none;curved=1;rounded=0;orthogonalLoop=1;jettySize=auto;html=1;fontSize=12;startSize=8;endSize=8;" edge="1" parent="1" source="mWkEnZMsEJqkS9hncbOy-54" target="mWkEnZMsEJqkS9hncbOy-55">
          <mxGeometry relative="1" as="geometry" />
        </mxCell>
        <mxCell id="mWkEnZMsEJqkS9hncbOy-54" value="int i = 0; i &amp;lt; N; i++" style="shape=hexagon;perimeter=hexagonPerimeter2;whiteSpace=wrap;html=1;fixedSize=1;" vertex="1" parent="1">
          <mxGeometry x="-36" y="1103" width="153" height="39" as="geometry" />
        </mxCell>
        <mxCell id="mWkEnZMsEJqkS9hncbOy-55" value="&lt;font style=&quot;font-size: 10px;&quot;&gt;cout &amp;lt;&amp;lt; cave[i] &amp;lt;&amp;lt; endl;&lt;/font&gt;" style="shape=parallelogram;perimeter=parallelogramPerimeter;whiteSpace=wrap;html=1;fixedSize=1;" vertex="1" parent="1">
          <mxGeometry x="-24.619999999999997" y="1162" width="130.25" height="60" as="geometry" />
        </mxCell>
        <mxCell id="mWkEnZMsEJqkS9hncbOy-57" value="" style="endArrow=none;html=1;rounded=0;fontSize=12;startSize=8;endSize=8;curved=1;entryX=1;entryY=0.5;entryDx=0;entryDy=0;" edge="1" parent="1" target="mWkEnZMsEJqkS9hncbOy-55">
          <mxGeometry width="50" height="50" relative="1" as="geometry">
            <mxPoint x="163" y="1192" as="sourcePoint" />
            <mxPoint x="96" y="1180" as="targetPoint" />
          </mxGeometry>
        </mxCell>
        <mxCell id="mWkEnZMsEJqkS9hncbOy-58" value="" style="endArrow=none;html=1;rounded=0;fontSize=12;startSize=8;endSize=8;curved=1;" edge="1" parent="1">
          <mxGeometry width="50" height="50" relative="1" as="geometry">
            <mxPoint x="163" y="1191" as="sourcePoint" />
            <mxPoint x="163" y="1123" as="targetPoint" />
          </mxGeometry>
        </mxCell>
        <mxCell id="mWkEnZMsEJqkS9hncbOy-59" value="" style="endArrow=none;html=1;rounded=0;fontSize=12;startSize=8;endSize=8;curved=1;entryX=1;entryY=0.5;entryDx=0;entryDy=0;" edge="1" parent="1" target="mWkEnZMsEJqkS9hncbOy-54">
          <mxGeometry width="50" height="50" relative="1" as="geometry">
            <mxPoint x="163" y="1123" as="sourcePoint" />
            <mxPoint x="138" y="1120" as="targetPoint" />
          </mxGeometry>
        </mxCell>
        <mxCell id="mWkEnZMsEJqkS9hncbOy-60" value="" style="endArrow=none;html=1;rounded=0;fontSize=12;startSize=8;endSize=8;curved=1;entryX=0;entryY=0.5;entryDx=0;entryDy=0;" edge="1" parent="1" target="mWkEnZMsEJqkS9hncbOy-54">
          <mxGeometry width="50" height="50" relative="1" as="geometry">
            <mxPoint x="-36" y="1291" as="sourcePoint" />
            <mxPoint x="120" y="1160" as="targetPoint" />
          </mxGeometry>
        </mxCell>
        <mxCell id="mWkEnZMsEJqkS9hncbOy-61" value="End" style="ellipse;whiteSpace=wrap;html=1;" vertex="1" parent="1">
          <mxGeometry x="-95" y="1270" width="120" height="80" as="geometry" />
        </mxCell>
      </root>
    </mxGraphModel>
  </diagram>
</mxfile>
